<svg height="500pt" viewBox="0 -58 500.00097 500" width="500pt" xmlns="http://www.w3.org/2000/svg"><path d="m318.710938 134v-54.097656h173.449218v160.199218h-173.449218zm0 0" fill="#fedb41"/><path d="m480.46875 304.410156v31.199219c0 22.40625-18.164062 40.570313-40.570312 40.570313h-391.476563c-22.410156.003906-40.578125-18.160157-40.582031-40.570313v-31.199219h176.800781l8.230469 8.941406c7.679687 8.328126 18.496094 13.070313 29.828125 13.070313h42.910156c11.332031 0 22.148437-4.742187 29.832031-13.070313l8.230469-8.941406zm0 0" fill="#f4b844"/><path d="m459.03125 304.359375v.050781h-155.359375l-8.230469 8.941406c-7.683594 8.328126-18.5 13.070313-29.832031 13.070313h-42.910156c-11.332031 0-22.148438-4.742187-29.828125-13.070313l-8.230469-8.941406h-155.359375v-256.019531c-.003906-22.40625 18.160156-40.574219 40.570312-40.570313h348.609376c22.40625-.003906 40.570312 18.164063 40.570312 40.570313v31.511719h-40.03125v-29.171875h-349.691406v216.332031h349.691406v-26.960938h40.03125zm0 0" fill="#00acea"/><path d="m318.710938 200v40.101562h100.289062v26.960938h-349.691406v-216.332031h349.691406v29.171875h-100.289062zm0 0" fill="#00efd1"/><path d="m492.160156 72h-25.160156v-23.609375c-.03125-26.769531-21.769531-48.4414062-48.539062-48.390625h-348.609376c-26.785156 0-48.851562 21.609375-48.851562 48.390625v247.609375h-13.160156c-4.417969 0-7.839844 3.992188-7.839844 8.410156v31.199219c-.0117188 12.84375 5.085938 25.164063 14.167969 34.242187 9.085937 9.078126 21.410156 14.171876 34.253906 14.148438h391.476563c12.8125.007812 25.09375-5.097656 34.125-14.179688 9.03125-9.085937 14.0625-21.398437 13.976562-34.210937v-31.199219c0-4.417968-3.109375-8.410156-7.53125-8.410156h-13.46875v-48h25.160156c2.09375.015625 4.109375-.8125 5.582032-2.296875 1.476562-1.488281 2.289062-3.507813 2.257812-5.601563v-160.199218c.03125-2.097656-.78125-4.117188-2.257812-5.601563-1.472657-1.488281-3.488282-2.316406-5.582032-2.300781zm-455.160156-23.609375c0-17.960937 14.890625-32.390625 32.851562-32.390625h348.609376c8.613281-.027344 16.882812 3.367188 22.988281 9.445312 6.105469 6.078126 9.539062 14.332032 9.550781 22.945313v23.609375h-24v-21.269531c-.011719-2.09375-.867188-4.09375-2.371094-5.550781-1.507812-1.453126-3.535156-2.238282-5.628906-2.179688h-349.691406c-4.417969 0-8.308594 3.3125-8.308594 7.730469v216.332031c.152344 4.464844 3.84375 7.988281 8.308594 7.9375h349.691406c2.117188.015625 4.148438-.816406 5.652344-2.304688 1.5-1.492187 2.34375-3.519531 2.347656-5.632812v-19.0625h24v48h-147.328125c-2.265625.078125-4.394531 1.085938-5.886719 2.789062l-8.226562 8.828126c-6.183594 6.648437-14.867188 10.414062-23.949219 10.382812h-42.910156c-9.066407.070312-17.746094-3.65625-23.941407-10.277344l-8.230468-9.039062c-1.503906-1.671875-3.636719-2.644532-5.886719-2.683594h-147.640625zm181 93.609375h93v50h-75.046875l18.664063-18.664062c3.125-3.125 3.125-8.191407 0-11.3125-3.125-3.125-8.191407-3.125-11.316407 0l-30.742187 30.738281c-2.210938 2.257812-3.097656 5.503906-2.335938 8.574219.765625 3.066406 3.0625 5.519531 6.078125 6.480468l27 27c3.121094 3.125 8.1875 3.125 11.316407 0 3.125-3.125 3.125-8.191406 0-11.316406l-15.5-15.5h71.882812v32.101562c-.0625 2.078126.722656 4.097657 2.179688 5.585938 1.453124 1.488281 3.449218 2.324219 5.53125 2.3125h92.289062v11h-334v-200h334v13h-92.289062c-2.082032-.011719-4.078126.824219-5.53125 2.3125-1.457032 1.492188-2.242188 3.507812-2.179688 5.589844v46.097656h-93c-4.417969 0-8 3.582031-8 8s3.582031 8 8 8zm254 170v23.609375c.089844 8.570313-3.253906 16.816406-9.285156 22.898437-6.03125 6.085938-14.246094 9.503907-22.816406 9.492188h-391.476563c-8.601563.027344-16.859375-3.375-22.945313-9.457031-6.082031-6.078125-9.496093-14.332031-9.476562-22.933594v-23.609375h165.132812l5.855469 6.359375c9.207031 9.957031 22.148438 15.628906 35.710938 15.640625h42.910156c13.566406-.015625 26.507813-5.683594 35.714844-15.644531l5.855469-6.355469zm12-80h-157v-24h61c4.417969 0 8-3.582031 8-8s-3.582031-8-8-8h-61v-50h41.886719l-16.113281 16.113281c-3.125 3.125-3.125 8.191407 0 11.3125 3.125 3.125 8.1875 3.125 11.3125 0l30.742187-30.738281c3.125-3.125 3.125-8.191406 0-11.3125l-30.742187-30.742188c-3.125-3.125-8.1875-3.125-11.3125 0s-3.125 8.191407 0 11.316407l18.054687 18.050781h-43.828125v-38h157zm0 0" fill="#083863"/></svg>